<svg width="12" height="13" viewBox="0 0 12 13" fill="none" xmlns="http://www.w3.org/2000/svg">
<g clip-path="url(#clip0_2675_6181)">
<path fill-rule="evenodd" clip-rule="evenodd" d="M8.4375 0.5516C8.5875 0.638319 8.66016 0.818788 8.60625 0.987538L7.25859 5.37504H9.75C9.95625 5.37504 10.125 5.54144 10.125 5.75004C10.125 5.84613 10.0898 5.93754 10.0219 6.00785L4.02188 12.3829C3.88125 12.5329 3.64219 12.5399 3.49219 12.3993C3.38672 12.3008 3.34922 12.1532 3.39141 12.0149L4.74141 7.62504H2.25C2.04375 7.62504 1.875 7.45629 1.875 7.25004C1.875 7.15394 1.91016 7.06254 1.97813 6.99223L7.97812 0.617225C8.09531 0.490663 8.2875 0.462538 8.4375 0.5516Z" fill="#808080"/>
</g>
<defs>
<clipPath id="clip0_2675_6181">
<rect width="12" height="12" fill="white" transform="translate(0 0.5)"/>
</clipPath>
</defs>
</svg>
