<svg width="32" height="32" viewBox="0 0 32 32" fill="none" xmlns="http://www.w3.org/2000/svg">
<rect width="32" height="32" rx="6" fill="#141414"/>
<path d="M21 6H11C8.24 6 6 8.23 6 10.98V16.96V17.96C6 20.71 8.24 22.94 11 22.94H12.5C12.77 22.94 13.13 23.12 13.3 23.34L14.8 25.33C15.46 26.21 16.54 26.21 17.2 25.33L18.7 23.34C18.89 23.09 19.19 22.94 19.5 22.94H21C23.76 22.94 26 20.71 26 17.96V10.98C26 8.23 23.76 6 21 6ZM17 17.75H11C10.59 17.75 10.25 17.41 10.25 17C10.25 16.59 10.59 16.25 11 16.25H17C17.41 16.25 17.75 16.59 17.75 17C17.75 17.41 17.41 17.75 17 17.75ZM21 12.75H11C10.59 12.75 10.25 12.41 10.25 12C10.25 11.59 10.59 11.25 11 11.25H21C21.41 11.25 21.75 11.59 21.75 12C21.75 12.41 21.41 12.75 21 12.75Z" fill="#45FFAE"/>
</svg>
