<svg width="41" height="40" viewBox="0 0 41 40" fill="none" xmlns="http://www.w3.org/2000/svg">
<path d="M27.8023 13.337C26.4207 12.7026 24.9615 12.253 23.4623 12C23.2713 12.329 23.0593 12.775 22.9103 13.125C21.3161 12.8917 19.6965 12.8917 18.1023 13.125C17.9533 12.775 17.7293 12.329 17.5493 12C16.0487 12.2494 14.5883 12.6991 13.2073 13.337C10.4603 17.391 9.71732 21.35 10.0893 25.255C11.699 26.4366 13.4971 27.3373 15.4073 27.919C15.8362 27.3396 16.2162 26.7254 16.5433 26.083C15.9163 25.849 15.3233 25.563 14.7493 25.223C14.8983 25.117 15.0463 25 15.1843 24.883C18.6443 26.465 22.3913 26.465 25.8083 24.883C25.9573 25 26.0953 25.117 26.2433 25.223C25.6703 25.563 25.0763 25.849 24.4503 26.083C24.7771 26.7254 25.1567 27.3395 25.5853 27.919C27.4963 27.3391 29.2946 26.4383 30.9033 25.255C31.3603 20.735 30.1813 16.807 27.8033 13.337M17.0193 22.846C15.9793 22.846 15.1303 21.901 15.1303 20.745C15.1303 19.589 15.9583 18.643 17.0203 18.643C18.0703 18.643 18.9303 19.588 18.9083 20.745C18.9083 21.901 18.0703 22.846 17.0193 22.846ZM23.9933 22.845C22.9533 22.845 22.1033 21.9 22.1033 20.744C22.1033 19.588 22.9313 18.642 23.9933 18.642C25.0433 18.642 25.9033 19.587 25.8823 20.744C25.8823 21.9 25.0543 22.844 23.9923 22.844" fill="#636363"/>
</svg>
