<svg width="117" height="40" viewBox="0 0 117 40" fill="none" xmlns="http://www.w3.org/2000/svg">
<rect width="40" height="40" rx="4.77612" fill="#141414"/>
<g filter="url(#filter0_d_2700_467)">
<path d="M10.322 16.9138C9.31015 19.8195 10.322 24.9822 16.4266 26.4091" stroke="#00FFCC" stroke-width="1.30302" stroke-linecap="round"/>
</g>
<path d="M5.26367 12.634C12.6316 14.6057 17.7943 19.535 18.9358 30.1977" stroke="white" stroke-width="1.30302" stroke-linecap="round"/>
<g filter="url(#filter1_d_2700_467)">
<path d="M30.4007 16.9138C31.4125 19.8195 30.4007 24.9822 24.2961 26.4091" stroke="#00FFCC" stroke-width="1.30302" stroke-linecap="round"/>
</g>
<path d="M35.4609 12.634C28.093 14.6057 22.9303 19.535 21.7888 30.1977" stroke="white" stroke-width="1.30302" stroke-linecap="round"/>
<path d="M49.725 28V11.9H54.992C56.2493 11.9 57.2843 12.1147 58.097 12.544C58.925 12.9733 59.5383 13.556 59.937 14.292C60.351 15.0127 60.558 15.833 60.558 16.753C60.558 17.7957 60.2897 18.7233 59.753 19.536C59.2317 20.3333 58.4267 20.916 57.338 21.284L60.719 28H57.89L54.808 21.629H52.163V28H49.725ZM52.163 19.421H54.854C55.958 19.421 56.763 19.1757 57.269 18.685C57.7903 18.1943 58.051 17.5503 58.051 16.753C58.051 15.9403 57.798 15.2963 57.292 14.821C56.786 14.3303 55.9657 14.085 54.831 14.085H52.163V19.421ZM67.656 28.276C66.7513 28.276 65.9923 28.1227 65.379 27.816C64.7657 27.494 64.3057 27.0723 63.999 26.551C63.6923 26.0143 63.539 25.4317 63.539 24.803C63.539 23.6837 63.9453 22.8097 64.758 22.181C65.586 21.5523 66.7513 21.238 68.254 21.238H71.198V20.985C71.198 19.2677 70.4007 18.409 68.806 18.409C68.1467 18.409 67.587 18.5547 67.127 18.846C66.6823 19.122 66.3833 19.5743 66.23 20.203H63.792C63.9147 19.007 64.4283 18.064 65.333 17.374C66.253 16.6687 67.4107 16.316 68.806 16.316C70.4927 16.316 71.7193 16.73 72.486 17.558C73.2527 18.386 73.636 19.5283 73.636 20.985V28H71.566L71.359 26.321H71.198C70.8607 26.8577 70.439 27.3177 69.933 27.701C69.427 28.0843 68.668 28.276 67.656 28.276ZM68.116 26.229C69.1127 26.229 69.8563 25.93 70.347 25.332C70.853 24.7187 71.129 23.9443 71.175 23.009H68.507C67.633 23.009 67.012 23.1547 66.644 23.446C66.2913 23.722 66.115 24.113 66.115 24.619C66.115 25.125 66.2913 25.5237 66.644 25.815C67.012 26.091 67.5027 26.229 68.116 26.229ZM81.01 28L76.065 16.592H78.825L82.482 25.424L86.162 16.592H88.899L83.931 28H81.01ZM96.411 28.276C95.307 28.276 94.3334 28.0307 93.49 27.54C92.6467 27.034 91.9874 26.3363 91.512 25.447C91.0367 24.5577 90.799 23.5227 90.799 22.342C90.799 21.146 91.029 20.0957 91.489 19.191C91.9644 18.2863 92.6237 17.581 93.467 17.075C94.3257 16.569 95.3147 16.316 96.434 16.316C97.538 16.316 98.4887 16.569 99.286 17.075C100.083 17.5657 100.697 18.225 101.126 19.053C101.571 19.881 101.793 20.7933 101.793 21.79C101.793 21.9433 101.793 22.112 101.793 22.296C101.793 22.4647 101.785 22.6563 101.77 22.871H93.191C93.2677 23.929 93.6127 24.734 94.226 25.286C94.8394 25.8227 95.56 26.091 96.388 26.091C97.1087 26.091 97.676 25.9453 98.09 25.654C98.5194 25.3473 98.8337 24.9333 99.033 24.412H101.494C101.218 25.5007 100.643 26.4207 99.769 27.172C98.895 27.908 97.7757 28.276 96.411 28.276ZM96.411 18.432C95.6597 18.432 94.9927 18.662 94.41 19.122C93.8274 19.5667 93.4517 20.1953 93.283 21.008H99.355C99.2937 20.2413 98.9947 19.6203 98.458 19.145C97.9214 18.6697 97.239 18.432 96.411 18.432ZM104.958 28V16.592H107.074L107.281 18.294H107.396C107.703 17.742 108.178 17.2743 108.822 16.891C109.466 16.5077 110.21 16.316 111.053 16.316C112.448 16.316 113.499 16.7377 114.204 17.581C114.909 18.4243 115.262 19.6663 115.262 21.307V28H112.824V21.606C112.824 20.6553 112.625 19.9193 112.226 19.398C111.827 18.8767 111.199 18.616 110.34 18.616C109.497 18.616 108.791 18.8997 108.224 19.467C107.672 20.0343 107.396 20.8547 107.396 21.928V28H104.958Z" fill="#45FFAE"/>
<defs>
<filter id="filter0_d_2700_467" x="6.74313" y="13.6762" width="12.921" height="15.9705" filterUnits="userSpaceOnUse" color-interpolation-filters="sRGB">
<feFlood flood-opacity="0" result="BackgroundImageFix"/>
<feColorMatrix in="SourceAlpha" type="matrix" values="0 0 0 0 0 0 0 0 0 0 0 0 0 0 0 0 0 0 127 0" result="hardAlpha"/>
<feOffset/>
<feGaussianBlur stdDeviation="1.29299"/>
<feComposite in2="hardAlpha" operator="out"/>
<feColorMatrix type="matrix" values="0 0 0 0 0 0 0 0 0 1 0 0 0 0 0.8 0 0 0 1 0"/>
<feBlend mode="normal" in2="BackgroundImageFix" result="effect1_dropShadow_2700_467"/>
<feBlend mode="normal" in="SourceGraphic" in2="effect1_dropShadow_2700_467" result="shape"/>
</filter>
<filter id="filter1_d_2700_467" x="21.0586" y="13.6762" width="12.921" height="15.9705" filterUnits="userSpaceOnUse" color-interpolation-filters="sRGB">
<feFlood flood-opacity="0" result="BackgroundImageFix"/>
<feColorMatrix in="SourceAlpha" type="matrix" values="0 0 0 0 0 0 0 0 0 0 0 0 0 0 0 0 0 0 127 0" result="hardAlpha"/>
<feOffset/>
<feGaussianBlur stdDeviation="1.29299"/>
<feComposite in2="hardAlpha" operator="out"/>
<feColorMatrix type="matrix" values="0 0 0 0 0 0 0 0 0 1 0 0 0 0 0.8 0 0 0 1 0"/>
<feBlend mode="normal" in2="BackgroundImageFix" result="effect1_dropShadow_2700_467"/>
<feBlend mode="normal" in="SourceGraphic" in2="effect1_dropShadow_2700_467" result="shape"/>
</filter>
</defs>
</svg>
