<svg width="32" height="32" viewBox="0 0 32 32" fill="none" xmlns="http://www.w3.org/2000/svg">
<path d="M11.4528 6.71266C11.8276 5.76244 13.1724 5.76245 13.5472 6.71267L14.7085 9.65732C14.8229 9.94743 15.0526 10.1771 15.3427 10.2915L18.2873 11.4528C19.2376 11.8276 19.2376 13.1724 18.2873 13.5472L15.3427 14.7085C15.0526 14.8229 14.8229 15.0526 14.7085 15.3427L13.5472 18.2873C13.1724 19.2376 11.8276 19.2376 11.4528 18.2873L10.2915 15.3427C10.1771 15.0526 9.94743 14.8229 9.65732 14.7085L6.71266 13.5472C5.76244 13.1724 5.76245 11.8276 6.71267 11.4528L9.65732 10.2915C9.94743 10.1771 10.1771 9.94743 10.2915 9.65732L11.4528 6.71266Z" fill="#808080"/>
<path d="M20.9245 17.3916C21.1305 16.8695 21.8695 16.8695 22.0755 17.3916L22.9761 19.6753C23.039 19.8348 23.1652 19.961 23.3247 20.0239L25.6084 20.9245C26.1305 21.1305 26.1305 21.8695 25.6084 22.0755L23.3247 22.9761C23.1652 23.039 23.039 23.1652 22.9761 23.3247L22.0755 25.6084C21.8695 26.1305 21.1305 26.1305 20.9245 25.6084L20.0239 23.3247C19.961 23.1652 19.8348 23.039 19.6753 22.9761L17.3916 22.0755C16.8695 21.8695 16.8695 21.1305 17.3916 20.9245L19.6753 20.0239C19.8348 19.961 19.961 19.8348 20.0239 19.6753L20.9245 17.3916Z" fill="#808080"/>
</svg>
