<svg width="16" height="16" viewBox="0 0 16 16" fill="none" xmlns="http://www.w3.org/2000/svg">
<path fill-rule="evenodd" clip-rule="evenodd" d="M14.0675 5.33561C14.0297 5.33323 13.9886 5.33324 13.946 5.33325L13.9353 5.33326H12.263C10.8845 5.33326 9.70508 6.4183 9.70508 7.83325C9.70508 9.24819 10.8845 10.3333 12.263 10.3333H13.9353H13.946C13.9886 10.3333 14.0297 10.3333 14.0675 10.3309C14.6275 10.2955 15.1226 9.85739 15.1643 9.24539C15.167 9.20525 15.1669 9.16199 15.1669 9.12192V9.11105V6.55548V6.5446C15.1669 6.50451 15.167 6.46125 15.1643 6.42112C15.1226 5.80913 14.6275 5.37097 14.0675 5.33561ZM12.1147 8.49992C12.4696 8.49992 12.7573 8.20145 12.7573 7.83325C12.7573 7.46505 12.4696 7.16659 12.1147 7.16659C11.7599 7.16659 11.4721 7.46505 11.4721 7.83325C11.4721 8.20145 11.7599 8.49992 12.1147 8.49992Z" fill="#45FFAE"/>
<path fill-rule="evenodd" clip-rule="evenodd" d="M13.9459 11.3333C14.0453 11.3307 14.1206 11.4228 14.0936 11.5185C13.9598 11.9935 13.7473 12.3983 13.4065 12.7392C12.9076 13.2381 12.2749 13.4595 11.4933 13.5646C10.7339 13.6667 9.76345 13.6667 8.53825 13.6667H7.12972C5.90454 13.6667 4.93411 13.6667 4.17464 13.5646C3.39302 13.4595 2.76039 13.2381 2.26148 12.7392C1.76257 12.2403 1.54116 11.6076 1.43608 10.826C1.33396 10.0665 1.33397 9.09613 1.33398 7.87093V7.79573C1.33397 6.57055 1.33396 5.60013 1.43608 4.84065C1.54116 4.05904 1.76257 3.42641 2.26148 2.92749C2.76039 2.42859 3.39302 2.20717 4.17464 2.10209C4.93411 1.99998 5.90453 1.99999 7.12972 2H8.53825C9.76345 1.99999 10.7339 1.99998 11.4933 2.10209C12.2749 2.20717 12.9076 2.42859 13.4065 2.92749C13.7473 3.26835 13.9597 3.67316 14.0936 4.14812C14.1206 4.24383 14.0453 4.33591 13.9459 4.33333L12.2633 4.33334C10.3722 4.33334 8.70538 5.82727 8.70538 7.83333C8.70538 9.8394 10.3722 11.3333 12.2633 11.3333H13.9459ZM4.66732 10.3333C4.39118 10.3333 4.16732 10.1095 4.16732 9.83333V5.83333C4.16732 5.55719 4.39118 5.33333 4.66732 5.33333C4.94346 5.33333 5.16732 5.55719 5.16732 5.83333V9.83333C5.16732 10.1095 4.94346 10.3333 4.66732 10.3333Z" fill="#45FFAE"/>
</svg>
